<?xml version="1.0" encoding="utf-8"?>
<!-- Generator: Adobe Illustrator 26.2.1, SVG Export Plug-In . SVG Version: 6.00 Build 0)  -->
<svg version="1.1" id="Camada_1" xmlns="http://www.w3.org/2000/svg" xmlns:xlink="http://www.w3.org/1999/xlink" x="0px" y="0px"
	 viewBox="0 0 600 600" style="enable-background:new 0 0 600 600;" xml:space="preserve">
<style type="text/css">
	.st0{display:none;fill:#453FFF;}
	.st1{fill:url(#SVGID_1_);}
</style>
<polygon class="st0" points="-815,-268 -815,-68 -1015,-68 -1015,-668 -415,-668 -415,-468 -615,-468 -615,-268 "/>
<path class="st0" d="M-815-268L-815-268c0,110.46-89.54,200-200,200h0v-400c0-110.46,89.54-200,200-200h400v0
	c0,110.46-89.54,200-200,200h0v0C-615-357.54-704.54-268-815-268L-815-268z"/>
<g>
	<linearGradient id="SVGID_1_" gradientUnits="userSpaceOnUse" x1="71.5672" y1="553.0366" x2="579.0234" y2="45.5803">
		<stop  offset="0" style="stop-color:#D400B1"/>
		<stop  offset="0.0587" style="stop-color:#CD05B4"/>
		<stop  offset="0.1409" style="stop-color:#BB14BB"/>
		<stop  offset="0.2372" style="stop-color:#9D2DC7"/>
		<stop  offset="0.3441" style="stop-color:#734FD8"/>
		<stop  offset="0.4583" style="stop-color:#3F7BEE"/>
		<stop  offset="0.5382" style="stop-color:#159DFF"/>
		<stop  offset="1" style="stop-color:#155FFF"/>
	</linearGradient>
	<path class="st1" d="M542.55,12.15c-1.51-3.32-3.22-6.7-6.06-9c-13.47-10.92-29.43,18.25-35.02,27.01
		c-27.92,43.83-81.06,69.79-126.54,92.3c-47.02,23.32-92.89,49.45-140.17,72.7c-53.28,26.22-105.57,50.3-142.12,99.16
		c-34.01,45.44-53.62,103.63-45.43,160.57C61.4,553.42,102.81,588.37,123.81,600c-5.82-6.65-11.15-13.7-16.11-21
		c-14.44-21.21-25.99-43.82-32.63-68.73C63.46,466.66,68.57,413,90,373c15-28,24-40,52-61c27.71-20.79,63.61-33.07,98.11-38.58
		c18.52-2.95,37.12-2.9,55.75-1.53c4.59,0.34,7.62,3.19,8.07,6.96c0.44,3.68-1.87,6.9-6.49,8.38c-12.11,3.91-24.41,7.23-36.31,11.8
		c-12.48,4.79-24.46,10.31-35.87,16.67c-18.05,10.84-35.03,23.25-50.3,37.71c-0.03,0.03-0.05,0.05-0.09,0.08
		c-3.23,3.24-6.37,6.6-9.44,10.09c-13.24,15.07-23.93,31.79-32.25,50.04c-0.41,0.92-1.21,1.77-0.83,3c1.42,0.01,1.95-1.21,2.73-1.96
		c15.16-14.61,32-26.46,52.44-32.53c13.81-4.1,27.79-4.78,41.96-2.24c4.15,0.74,6.51,2.99,6.89,6.51c0.33,2.95-1.12,5.37-4.11,7
		c0.15-0.04,0.29-0.09,0.41-0.14c-0.21,0.09-0.44,0.18-0.65,0.26c-0.36,0.19-0.77,0.38-1.18,0.54
		c-28.96,11.7-54.98,27.86-76.21,51.06c-17.43,19.04-28.77,41.09-32.04,66.97c-2.04,16.05-0.46,31.84,3.38,47.46
		c2.35,9.58,5.44,18.92,9.31,27.97c1.08-39.78,25.38-67.2,34.23-75.91c1.62-1.58,4.29-1.43,5.67,0.39
		c28.08,36.69,63.98,49.94,94.15,51.32c31.09,1.43,36.74-16.84,36.48-39.24c-0.18-16.1,6.54-19.43,10.34-20.03
		c3.13-0.5,6.23-1.08,9.27-1.96c16.04-4.69,55.89-17.23,66.7-29.02c13.64-14.85-9-39.05-17.11-47.78
		c-8.11-8.71-3.56-10.32-3.56-10.32s107.2-22.56,125.79-91.9c4.6-17.18,7.04-40.14-10.33-51.01c-10.06-6.28-21.73-4.39-32.54-4.9
		c15.49-25.71,41.34-47.06,58.27-72.73c16.82-25.48,30.9-53.41,37.42-83.43C557.27,77.66,556.82,43.7,542.55,12.15z"/>
</g>
</svg>
